<?xml version="1.0" encoding="UTF-8"?>
<svg version="1.1" xmlns="http://www.w3.org/2000/svg" width="5847" height="4135">
<path d="M0 0 C0.33 0 0.66 0 1 0 C1.01099868 38.41788726 1.02154219 76.83577463 1.03173828 115.25366211 C1.03193788 116.00556924 1.03213747 116.75747636 1.03234312 117.53216855 C1.05373596 198.16903315 1.0721773 278.80589779 1.08468628 359.44276428 C1.08496518 361.23583848 1.08524408 363.02891268 1.08552299 364.82198688 C1.09136954 402.46686828 1.09680284 440.11174973 1.10175936 477.75663126 C1.10424997 496.66954547 1.1068199 515.58245966 1.10946488 534.49537385 C1.10986338 537.34814819 1.11025962 540.20092253 1.11065576 543.05369687 C1.11676893 586.93348348 1.12457366 630.81326897 1.1373291 674.6930542 C1.1376029 675.63505402 1.1378767 676.57705385 1.13815879 677.54759912 C1.14258301 692.73346043 1.14715043 707.91932168 1.15173688 723.10518293 C1.16496026 766.89542917 1.17710833 810.68567455 1.18227959 854.47592258 C1.18244019 855.82939796 1.18244019 855.82939796 1.18260404 857.21021627 C1.18493667 877.02798985 1.18672587 896.84576344 1.18800197 916.66353712 C1.18852514 924.6400109 1.18912639 932.61648468 1.18975449 940.59295845 C1.18982134 941.4658972 1.18988819 942.33883594 1.18995707 943.23822738 C1.19214258 971.26940341 1.20065944 999.30057304 1.21256442 1027.3317465 C1.22454761 1055.61632369 1.23018383 1083.9008947 1.22724798 1112.18547449 C1.22684193 1116.11241601 1.22650712 1120.03935753 1.22621536 1123.96629906 C1.2261556 1124.73595317 1.22609584 1125.50560728 1.22603427 1126.29858425 C1.22527904 1138.385087 1.23118802 1150.47157649 1.24001972 1162.55807564 C1.24860661 1174.50343977 1.24980902 1186.44878707 1.24366363 1198.39415285 C1.24067966 1204.75939311 1.24062387 1211.12458998 1.24976636 1217.48982536 C1.30568529 1258.84497854 0.2010679 1300.1178455 -2.75 1341.375 C-2.87355362 1343.13559753 -2.87355362 1343.13559753 -2.99960327 1344.9317627 C-11.10087446 1459.40142627 -29.83528745 1572.99436099 -187.54003906 2034.97851562 C-188.91634011 2037.8268604 -190.27174798 2040.68384528 -191.6171875 2043.546875 C-203.0537685 2067.85124342 -215.42274003 2091.76093828 -228.46777344 2115.24023438 C-230.16494531 2118.29709079 -231.85206973 2121.35939 -233.5390625 2124.421875 C-251.49252114 2156.95210596 -270.44834158 2188.80030045 -290.25732422 2220.22949219 C-291.8786296 2222.80704521 -293.48925293 2225.39094716 -295.09765625 2227.9765625 C-311.49838222 2254.19507752 -329.00853382 2279.84842448 -347 2305 C-347.52625977 2305.73653809 -348.05251953 2306.47307617 -348.59472656 2307.23193359 C-352.37051264 2312.50696208 -356.17644569 2317.75951487 -360 2323 C-360.55123535 2323.75603516 -361.1024707 2324.51207031 -361.67041016 2325.29101562 C-378.01241755 2347.67112844 -394.77614561 2369.78689759 -412.31713867 2391.2434082 C-415.76037601 2395.45857766 -419.15079808 2399.70980573 -422.5 2404 C-426.98256857 2409.74096271 -431.56044157 2415.39887941 -436.16625977 2421.04125977 C-439.63893482 2425.30310909 -443.05826306 2429.60131101 -446.4375 2433.9375 C-451.12065104 2439.94295251 -455.95081655 2445.81850309 -460.80834961 2451.68334961 C-464.43688987 2456.07401729 -468.0016337 2460.50506644 -471.5 2465 C-475.57913505 2470.24114385 -479.76366072 2475.38516509 -484 2480.5 C-488.25428323 2485.6374538 -492.46041321 2490.80260261 -496.5625 2496.0625 C-503.13655066 2504.49207102 -509.90649708 2512.76001108 -516.66601562 2521.04101562 C-522.33199206 2527.98533222 -527.98126873 2534.93779253 -533.5 2542 C-540.10012047 2550.44603909 -546.88813473 2558.73751558 -553.66601562 2567.04101562 C-559.33199206 2573.98533222 -564.98126873 2580.93779253 -570.5 2588 C-577.10012047 2596.44603909 -583.88813473 2604.73751558 -590.66601562 2613.04101562 C-596.88628628 2620.6646846 -603.06155194 2628.31595824 -609.12207031 2636.06738281 C-612.54445806 2640.4383536 -616.03643685 2644.7472116 -619.5625 2649.03515625 C-626.62398655 2657.62436825 -633.65384653 2666.23777682 -640.5 2675 C-647.10005026 2683.44609202 -653.88813636 2691.73751758 -660.66601562 2700.04101562 C-666.33199206 2706.98533222 -671.98126873 2713.93779253 -677.5 2721 C-684.10012047 2729.44603909 -690.88813473 2737.73751558 -697.66601562 2746.04101562 C-703.88628628 2753.6646846 -710.06155194 2761.31595824 -716.12207031 2769.06738281 C-719.54445806 2773.4383536 -723.03643685 2777.7472116 -726.5625 2782.03515625 C-733.62398655 2790.62436825 -740.65384653 2799.23777682 -747.5 2808 C-754.10005026 2816.44609202 -760.88813636 2824.73751758 -767.66601562 2833.04101562 C-773.33199206 2839.98533222 -778.98126873 2846.93779253 -784.5 2854 C-791.10012047 2862.44603909 -797.88813473 2870.73751558 -804.66601562 2879.04101562 C-810.88628628 2886.6646846 -817.06155194 2894.31595824 -823.12207031 2902.06738281 C-826.54445806 2906.4383536 -830.03643685 2910.7472116 -833.5625 2915.03515625 C-840.62398655 2923.62436825 -847.65384653 2932.23777682 -854.5 2941 C-861.10005026 2949.44609202 -867.88813636 2957.73751758 -874.66601562 2966.04101562 C-880.33199206 2972.98533222 -885.98126873 2979.93779253 -891.5 2987 C-898.10012047 2995.44603909 -904.88813473 3003.73751558 -911.66601562 3012.04101562 C-917.88628628 3019.6646846 -924.06155194 3027.31595824 -930.12207031 3035.06738281 C-933.54445806 3039.4383536 -937.03643685 3043.7472116 -940.5625 3048.03515625 C-947.62398655 3056.62436825 -954.65384653 3065.23777682 -961.5 3074 C-968.10005026 3082.44609202 -974.88813636 3090.73751758 -981.66601562 3099.04101562 C-987.33199206 3105.98533222 -992.98126873 3112.93779253 -998.5 3120 C-1005.10012047 3128.44603909 -1011.88813473 3136.73751558 -1018.66601562 3145.04101562 C-1024.33199206 3151.98533222 -1029.98126873 3158.93779253 -1035.5 3166 C-1042.10012047 3174.44603909 -1048.88813473 3182.73751558 -1055.66601562 3191.04101562 C-1061.88628628 3198.6646846 -1068.06155194 3206.31595824 -1074.12207031 3214.06738281 C-1077.54445806 3218.4383536 -1081.03643685 3222.7472116 -1084.5625 3227.03515625 C-1091.62398655 3235.62436825 -1098.65384653 3244.23777682 -1105.5 3253 C-1112.10005026 3261.44609202 -1118.88813636 3269.73751758 -1125.66601562 3278.04101562 C-1131.33199206 3284.98533222 -1136.98126873 3291.93779253 -1142.5 3299 C-1149.10012047 3307.44603909 -1155.88813473 3315.73751558 -1162.66601562 3324.04101562 C-1168.88628628 3331.6646846 -1175.06155194 3339.31595824 -1181.12207031 3347.06738281 C-1184.54445806 3351.4383536 -1188.03643685 3355.7472116 -1191.5625 3360.03515625 C-1198.62398655 3368.62436825 -1205.65384653 3377.23777682 -1212.5 3386 C-1219.10005026 3394.44609202 -1225.88813636 3402.73751758 -1232.66601562 3411.04101562 C-1238.33199206 3417.98533222 -1243.98126873 3424.93779253 -1249.5 3432 C-1256.10012047 3440.44603909 -1262.88813473 3448.73751558 -1269.66601562 3457.04101562 C-1275.88628628 3464.6646846 -1282.06155194 3472.31595824 -1288.12207031 3480.06738281 C-1291.54445806 3484.4383536 -1295.03643685 3488.7472116 -1298.5625 3493.03515625 C-1305.62398655 3501.62436825 -1312.65384653 3510.23777682 -1319.5 3519 C-1326.10005026 3527.44609202 -1332.88813636 3535.73751758 -1339.66601562 3544.04101562 C-1345.33199206 3550.98533222 -1350.98126873 3557.93779253 -1356.5 3565 C-1363.10012047 3573.44603909 -1369.88813473 3581.73751558 -1376.66601562 3590.04101562 C-1382.88628628 3597.6646846 -1389.06155194 3605.31595824 -1395.12207031 3613.06738281 C-1398.54445806 3617.4383536 -1402.03643685 3621.7472116 -1405.5625 3626.03515625 C-1412.62398655 3634.62436825 -1419.65384653 3643.23777682 -1426.5 3652 C-1433.10005026 3660.44609202 -1439.88813636 3668.73751758 -1446.66601562 3677.04101562 C-1452.33199206 3683.98533222 -1457.98126873 3690.93779253 -1463.5 3698 C-1470.10012047 3706.44603909 -1476.88813473 3714.73751558 -1483.66601562 3723.04101562 C-1489.88628628 3730.6646846 -1496.06155194 3738.31595824 -1502.12207031 3746.06738281 C-1505.54445806 3750.4383536 -1509.03643685 3754.7472116 -1512.5625 3759.03515625 C-1520.07736505 3768.17583345 -1527.53578612 3777.35686378 -1534.81567383 3786.68603516 C-1539.05562049 3792.10542269 -1543.39883288 3797.43905078 -1547.76171875 3802.75976562 C-1548.54675781 3803.71979492 -1548.54675781 3803.71979492 -1549.34765625 3804.69921875 C-1550.04387085 3805.54746216 -1550.04387085 3805.54746216 -1550.75415039 3806.4128418 C-1551.91071998 3807.88626114 -1552.96097416 3809.44146123 -1554 3811 C-1554.66 3811 -1555.32 3811 -1556 3811 C-1556.01099821 3768.98087575 -1556.0215418 3726.9617514 -1556.03173828 3684.94262695 C-1556.03193788 3684.12026899 -1556.03213747 3683.29791104 -1556.03234312 3682.45063314 C-1556.05373188 3594.27529146 -1556.07217431 3506.09994974 -1556.08468628 3417.92460632 C-1556.08496518 3415.96436897 -1556.08524408 3414.00413162 -1556.08552299 3412.04389427 C-1556.09136928 3370.89138088 -1556.09680261 3329.73886745 -1556.10175936 3288.58635394 C-1556.10425001 3267.91183627 -1556.10681995 3247.23731861 -1556.10946488 3226.56280095 C-1556.10986338 3223.44427029 -1556.11025962 3220.32573962 -1556.11065576 3217.20720896 C-1556.11677044 3169.22781954 -1556.12457805 3121.24843113 -1556.1373291 3073.26904297 C-1556.1376029 3072.23868003 -1556.1378767 3071.20831708 -1556.13815879 3070.14673102 C-1556.14258313 3053.53590023 -1556.1471505 3036.92506948 -1556.15173688 3020.31423874 C-1556.16495668 2972.42717307 -1556.17710602 2924.54010819 -1556.18227959 2876.65304089 C-1556.18238666 2875.66674559 -1556.18249373 2874.6804503 -1556.18260404 2873.66426727 C-1556.18493643 2852.00441625 -1556.18672574 2830.34456522 -1556.18800197 2808.68471411 C-1556.18852515 2799.96741853 -1556.1891264 2791.25012295 -1556.18975449 2782.53282738 C-1556.18982134 2781.57880123 -1556.18988819 2780.62477508 -1556.18995707 2779.64183905 C-1556.1921442 2748.98384443 -1556.20066667 2718.32585566 -1556.21256442 2687.6678634 C-1556.22453589 2656.74428403 -1556.230187 2625.82071031 -1556.22724798 2594.89712857 C-1556.2268419 2590.60816542 -1556.2265071 2586.31920227 -1556.22621536 2582.03023911 C-1556.2261556 2581.18959832 -1556.22609584 2580.34895754 -1556.22603427 2579.48284279 C-1556.22527772 2566.25767888 -1556.23119989 2553.03252704 -1556.24001972 2539.80736641 C-1556.24858597 2526.75111714 -1556.24982384 2513.69488327 -1556.24366363 2500.6386325 C-1556.24057075 2493.67552682 -1556.24044084 2486.71245756 -1556.24976636 2479.74935643 C-1556.29865337 2440.03943106 -1555.66039304 2400.39781683 -1552.25 2360.8125 C-1552.16763092 2359.83035522 -1552.08526184 2358.84821045 -1552.00039673 2357.83630371 C-1543.3291181 2255.09549725 -1522.45513426 2154.03564463 -1399.80175781 1847.27539062 C-1397.96940965 1843.94439023 -1396.15240745 1840.60530581 -1394.3359375 1837.265625 C-1385.94982349 1821.9297844 -1377.05143295 1806.95739372 -1367.890625 1792.07763672 C-1366.22853889 1789.37202495 -1364.5787326 1786.65969775 -1362.9375 1783.94140625 C-1356.20354948 1772.79947461 -1349.15844405 1761.87340016 -1342 1751 C-1341.41822998 1750.11489746 -1341.41822998 1750.11489746 -1340.82470703 1749.21191406 C-1324.22611742 1723.99827441 -1306.72345242 1699.32398884 -1288.10986328 1675.55883789 C-1284.34605928 1670.7494156 -1280.64785606 1665.89785474 -1277 1661 C-1270.98655965 1652.93102709 -1264.80255749 1644.99948898 -1258.61035156 1637.06738281 C-1254.71397669 1632.06518414 -1250.86037495 1627.02999186 -1247 1622 C-1245.33390747 1619.83289153 -1243.66694801 1617.66645047 -1242 1615.5 C-1241.16665095 1614.41667876 -1240.33331759 1613.33334544 -1239.5 1612.25 C-1214.5 1579.75 -1214.5 1579.75 -1213.25073242 1578.12597656 C-1212.41492624 1577.03941221 -1211.57915165 1575.95282355 -1210.7434082 1574.86621094 C-1208.69816364 1572.20711452 -1206.65230009 1569.5485006 -1204.60546875 1566.890625 C-1199.8924 1560.76896543 -1195.19125402 1554.63839588 -1190.5 1548.5 C-1185.01437558 1541.32218908 -1179.51203249 1534.15754953 -1174 1527 C-1172.33304708 1524.83355349 -1170.66652587 1522.66677503 -1169 1520.5 C-1168.16667453 1519.41666062 -1167.3333412 1518.33332728 -1166.5 1517.25 C-1166.0875 1516.71375 -1165.675 1516.1775 -1165.25 1515.625 C-1121.49999998 1458.74999998 -1121.49999998 1458.74999998 -1120.25073242 1457.12597656 C-1119.41492624 1456.03941221 -1118.57915165 1454.95282355 -1117.7434082 1453.86621094 C-1115.69816364 1451.20711452 -1113.65230009 1448.5485006 -1111.60546875 1445.890625 C-1106.8924 1439.76896543 -1102.19125402 1433.63839588 -1097.5 1427.5 C-1092.01437558 1420.32218908 -1086.51203249 1413.15754953 -1081 1406 C-1079.33304708 1403.83355349 -1077.66652587 1401.66677503 -1076 1399.5 C-1075.16667453 1398.41666062 -1074.3333412 1397.33332728 -1073.5 1396.25 C-1073.0875 1395.71375 -1072.675 1395.1775 -1072.25 1394.625 C-1028.49999999 1337.74999999 -1028.49999999 1337.74999999 -1027.25073242 1336.12597656 C-1026.41492624 1335.03941221 -1025.57915165 1333.95282355 -1024.7434082 1332.86621094 C-1022.69816364 1330.20711452 -1020.65230009 1327.5485006 -1018.60546875 1324.890625 C-1013.8924 1318.76896543 -1009.19125402 1312.63839588 -1004.5 1306.5 C-999.01437558 1299.32218908 -993.51203249 1292.15754953 -988 1285 C-986.33304708 1282.83355349 -984.66652587 1280.66677503 -983 1278.5 C-982.16667453 1277.41666062 -981.3333412 1276.33332728 -980.5 1275.25 C-980.0875 1274.71375 -979.675 1274.1775 -979.25 1273.625 C-935.5 1216.75000001 -935.5 1216.75000001 -934.25073242 1215.12597656 C-933.41492624 1214.03941221 -932.57915165 1212.95282355 -931.7434082 1211.86621094 C-929.69816364 1209.20711452 -927.65230009 1206.5485006 -925.60546875 1203.890625 C-920.8924 1197.76896543 -916.19125402 1191.63839588 -911.5 1185.5 C-906.01437558 1178.32218908 -900.51203249 1171.15754953 -895 1164 C-893.33304708 1161.83355349 -891.66652587 1159.66677503 -890 1157.5 C-889.16667453 1156.41666062 -888.3333412 1155.33332728 -887.5 1154.25 C-887.0875 1153.71375 -886.675 1153.1775 -886.25 1152.625 C-852.49999999 1108.74999999 -852.49999999 1108.74999999 -851.25073242 1107.12597656 C-850.41492624 1106.03941221 -849.57915165 1104.95282355 -848.7434082 1103.86621094 C-846.69816364 1101.20711452 -844.65230009 1098.5485006 -842.60546875 1095.890625 C-837.8924 1089.76896543 -833.19125402 1083.63839588 -828.5 1077.5 C-823.01437558 1070.32218908 -817.51203249 1063.15754953 -812 1056 C-810.33304708 1053.83355349 -808.66652587 1051.66677503 -807 1049.5 C-806.16667453 1048.41666062 -805.3333412 1047.33332728 -804.5 1046.25 C-804.0875 1045.71375 -803.675 1045.1775 -803.25 1044.625 C-759.49999999 987.74999999 -759.49999999 987.74999999 -758.25073242 986.12597656 C-757.41492624 985.03941221 -756.57915165 983.95282355 -755.7434082 982.86621094 C-753.69816364 980.20711452 -751.65230009 977.5485006 -749.60546875 974.890625 C-744.8924 968.76896543 -740.19125402 962.63839588 -735.5 956.5 C-730.01437558 949.32218908 -724.51203249 942.15754953 -719 935 C-717.33304708 932.83355349 -715.66652587 930.66677503 -714 928.5 C-713.16667453 927.41666062 -712.3333412 926.33332728 -711.5 925.25 C-710.88125 924.445625 -710.88125 924.445625 -710.25 923.625 C-666.5 866.75 -666.5 866.75 -665.25073242 865.12597656 C-664.41492624 864.03941221 -663.57915165 862.95282355 -662.7434082 861.86621094 C-660.69816364 859.20711452 -658.65230009 856.5485006 -656.60546875 853.890625 C-651.8924 847.76896543 -647.19125402 841.63839588 -642.5 835.5 C-637.01437558 828.32218908 -631.51203249 821.15754953 -626 814 C-624.33304708 811.83355349 -622.66652587 809.66677503 -621 807.5 C-620.16667453 806.41666062 -619.3333412 805.33332728 -618.5 804.25 C-617.88125 803.445625 -617.88125 803.445625 -617.25 802.625 C-573.5 745.75000001 -573.5 745.75000001 -572.25073242 744.12597656 C-571.41492624 743.03941221 -570.57915165 741.95282355 -569.7434082 740.86621094 C-567.69816364 738.20711452 -565.65230009 735.5485006 -563.60546875 732.890625 C-558.8924 726.76896543 -554.19125402 720.63839588 -549.5 714.5 C-544.01437558 707.32218908 -538.51203249 700.15754953 -533 693 C-531.33304708 690.83355349 -529.66652587 688.66677503 -528 686.5 C-527.16667453 685.41666062 -526.3333412 684.33332728 -525.5 683.25 C-525.0875 682.71375 -524.675 682.1775 -524.25 681.625 C-480.5 624.75000001 -480.5 624.75000001 -479.25073242 623.12597656 C-478.41492624 622.03941221 -477.57915165 620.95282355 -476.7434082 619.86621094 C-474.69816364 617.20711452 -472.65230009 614.5485006 -470.60546875 611.890625 C-465.8924 605.76896543 -461.19125402 599.63839588 -456.5 593.5 C-451.01437558 586.32218908 -445.51203249 579.15754953 -440 572 C-438.33304708 569.83355349 -436.66652587 567.66677503 -435 565.5 C-434.16667453 564.41666062 -433.3333412 563.33332728 -432.5 562.25 C-432.0875 561.71375 -431.675 561.1775 -431.25 560.625 C-387.5 503.75 -387.5 503.75 -386.25073242 502.12597656 C-385.41492624 501.03941221 -384.57915165 499.95282355 -383.7434082 498.86621094 C-381.69816364 496.20711452 -379.65230009 493.5485006 -377.60546875 490.890625 C-372.8924 484.76896543 -368.19125402 478.63839588 -363.5 472.5 C-358.01437558 465.32218908 -352.51203249 458.15754953 -347 451 C-345.33304708 448.83355349 -343.66652587 446.66677503 -342 444.5 C-341.16667453 443.41666062 -340.3333412 442.33332728 -339.5 441.25 C-339.0875 440.71375 -338.675 440.1775 -338.25 439.625 C-294.5 382.75 -294.5 382.75 -293.25073242 381.12597656 C-292.41492624 380.03941221 -291.57915165 378.95282355 -290.7434082 377.86621094 C-288.69816364 375.20711452 -286.65230009 372.5485006 -284.60546875 369.890625 C-279.8924 363.76896543 -275.19125402 357.63839588 -270.5 351.5 C-265.01437558 344.32218908 -259.51203249 337.15754953 -254 330 C-252.33304708 327.83355349 -250.66652587 325.66677503 -249 323.5 C-248.16667453 322.41666062 -247.3333412 321.33332728 -246.5 320.25 C-246.0875 319.71375 -245.675 319.1775 -245.25 318.625 C-211.5 274.75 -211.5 274.75 -210.25073242 273.12597656 C-209.41492624 272.03941221 -208.57915165 270.95282355 -207.7434082 269.86621094 C-205.69816364 267.20711452 -203.65230009 264.5485006 -201.60546875 261.890625 C-196.8924 255.76896543 -192.19125402 249.63839588 -187.5 243.5 C-182.01437558 236.32218908 -176.51203249 229.15754953 -171 222 C-169.33304708 219.83355349 -167.66652587 217.66677503 -166 215.5 C-165.16667453 214.41666062 -164.3333412 213.33332728 -163.5 212.25 C-163.0875 211.71375 -162.675 211.1775 -162.25 210.625 C-118.5 153.75 -118.5 153.75 -117.25073242 152.12597656 C-116.41492624 151.03941221 -115.57915165 149.95282355 -114.7434082 148.86621094 C-112.69816364 146.20711452 -110.65230009 143.5485006 -108.60546875 140.890625 C-103.8924 134.76896543 -99.19125402 128.63839588 -94.5 122.5 C-89.01437558 115.32218908 -83.51203249 108.15754953 -78 101 C-76.33304708 98.83355349 -74.66652587 96.66677503 -73 94.5 C-72.16667453 93.41666062 -71.3333412 92.33332728 -70.5 91.25 C-70.0875 90.71375 -69.675 90.1775 -69.25 89.625 C-54.66666667 70.66666667 -40.08333333 51.70833333 -25.5 32.75 C-25.08733887 32.2135083 -24.67467773 31.6770166 -24.24951172 31.12426758 C-23.41793189 30.04327879 -22.58622658 28.96238651 -21.75439453 27.8815918 C-19.64318208 25.13817334 -17.53432109 22.39300081 -15.4296875 19.64453125 C-3.32088948 3.84113326 -3.32088948 3.84113326 0 0 Z " fill="#8D9BCC" transform="translate(3367,125)"/>
<path d="M0 0 C1.84875732 0.6182666 1.84875732 0.6182666 3.73486328 1.24902344 C49.63153524 16.77943105 94.17752037 37.62841237 136 62 C136.89847656 62.51884766 137.79695313 63.03769531 138.72265625 63.57226562 C173.44091351 83.62892791 206.39373364 106.35108787 238 131 C239.14971491 131.89065685 240.29945528 132.78128084 241.44921875 133.671875 C248.40889161 139.08207561 255.20457234 144.64900626 261.90625 150.375 C264.7955132 152.83915964 267.73518458 155.23661 270.6875 157.625 C275.14191113 161.25068347 279.42948601 165.02429653 283.67578125 168.890625 C285.72042335 170.74626657 287.78784149 172.56756376 289.875 174.375 C294.21595791 178.15920178 298.45653299 182.05057414 302.68847656 185.95556641 C304.66789636 187.77962178 306.65607917 189.59106829 308.65600586 191.39282227 C319.04371911 200.81805813 328.9180247 210.7651604 338.82226562 220.69189453 C341.37699803 223.2523617 343.93624935 225.80825789 346.49682426 228.36288071 C348.49768134 230.36010047 350.49612166 232.3597249 352.49386978 234.36005402 C353.88770888 235.75486705 355.2835306 237.14769798 356.67941284 238.54046631 C361.10509752 242.98240184 365.40726639 247.47118343 369.48098755 252.23944092 C372.22216713 255.41651073 375.12252815 258.44681989 378 261.5 C382.76652725 266.58599791 387.47506833 271.69658546 392 277 C392.88646428 278.03277056 393.77321035 279.06529928 394.66015625 280.09765625 C396.71650221 282.49227264 398.76933468 284.88984739 400.8203125 287.2890625 C402.88970698 289.7082138 404.96777307 292.11938733 407.0546875 294.5234375 C412.5413373 300.85685284 417.86216912 307.27772594 423.00073242 313.8972168 C425.88296917 317.60398561 428.84197074 321.2266767 431.875 324.8125 C436.97694179 330.88815623 441.77184278 337.17665597 446.56640625 343.49609375 C449.47362377 347.32366568 452.4262486 351.11356402 455.3918457 354.89599609 C461.36561973 362.5193602 467.12781376 370.24357581 472.69873047 378.16455078 C474.61184265 380.86300807 476.56059687 383.53516647 478.5065918 386.20996094 C491.37667414 403.92404018 503.71330461 421.96215357 515.75 440.25 C516.26953247 441.03862427 516.78906494 441.82724854 517.32434082 442.63977051 C535.71300724 470.57827175 553.316021 499.01064282 570 528 C570.50450684 528.87398437 571.00901367 529.74796875 571.52880859 530.6484375 C580.19369203 545.66718838 588.68827903 560.78297682 597 576 C597.32103699 576.58773193 597.64207397 577.17546387 597.97283936 577.78100586 C619.62333942 617.49201701 640.30187302 658.11761872 658.47460938 699.54345703 C660.00389183 703.00881891 661.56650986 706.45713822 663.140625 709.90234375 C678.40703006 743.38439926 692.41900621 777.419161 705 812 C705.42116089 813.15381165 705.42116089 813.15381165 705.85083008 814.33093262 C706.70343908 816.67423143 707.5483312 819.02016343 708.390625 821.3671875 C708.78383942 822.44820236 708.78383942 822.44820236 709.18499756 823.55105591 C710.23469126 826.50218285 711 828.84246242 711 832 C84 832 -543 832 -1189 832 C-1187.17211359 826.51634077 -1185.54697349 821.70742444 -1183.13671875 816.578125 C-1182.31276611 814.81686279 -1182.31276611 814.81686279 -1181.47216797 813.02001953 C-1180.87757463 811.76320628 -1180.28267651 810.50653719 -1179.6875 809.25 C-1179.0585447 807.91399943 -1178.4298056 806.57789707 -1177.80126953 805.24169922 C-1175.87659949 801.15680087 -1173.9395664 797.07784173 -1172 793 C-1171.15767822 791.22641113 -1171.15767822 791.22641113 -1170.29833984 789.41699219 C-1157.07240937 761.63421999 -1143.68225873 733.82164757 -1128.71484375 706.9296875 C-1125.71652886 701.53250351 -1122.89236803 696.04932516 -1120.0625 690.5625 C-1114.53058408 679.87449237 -1108.64684584 669.41046829 -1102.6796875 658.9609375 C-1100.96693173 655.94170756 -1099.27690282 652.91082358 -1097.59375 649.875 C-1089.89144797 635.98735115 -1081.87183917 622.3274179 -1073.64990234 608.74169922 C-1071.41942735 605.03524254 -1069.2390404 601.3007728 -1067.0625 597.5625 C-1056.41848948 579.36097186 -1045.15080286 561.52410069 -1033.77294922 543.77490234 C-1031.96533936 540.94575147 -1030.17094772 538.10856518 -1028.37890625 535.26953125 C-1008.93310691 504.54506743 -988.32912759 474.47505723 -966.94921875 445.06640625 C-964.66385074 441.92245511 -962.40302085 438.76229677 -960.1550293 435.59155273 C-954.79607159 428.03614234 -949.2580735 420.62406372 -943.67871094 413.23046875 C-941.87602178 410.83527269 -940.08179798 408.43390426 -938.2890625 406.03125 C-928.40025401 392.78490463 -918.29296778 379.76747912 -907.83764648 366.96435547 C-904.31456183 362.6434434 -900.85828262 358.27713436 -897.4375 353.875 C-893.22115945 348.46046861 -888.82865834 343.22435526 -884.33740234 338.03637695 C-881.35432845 334.5893446 -878.43044536 331.10679811 -875.5625 327.5625 C-867.43523556 317.56537581 -858.90004335 307.91351351 -850.19921875 298.4140625 C-847.67784834 295.64637704 -845.21580744 292.83164854 -842.7578125 290.0078125 C-835.33278402 281.52677997 -827.67100664 273.2579102 -820 265 C-819.44242004 264.39885376 -818.88484009 263.79770752 -818.31036377 263.17834473 C-807.82043529 251.88768964 -797.05296228 240.89618854 -786.14257812 230.01220703 C-783.47147392 227.3465319 -780.8058499 224.67545838 -778.140625 222.00390625 C-776.4169877 220.28092878 -774.69304075 218.55826102 -772.96875 216.8359375 C-772.18528198 216.05044525 -771.40181396 215.264953 -770.59460449 214.45565796 C-766.44925584 210.32776469 -762.22908385 206.35809008 -757.77648926 202.56240845 C-755.93702557 200.94461448 -754.21468251 199.24880794 -752.5 197.5 C-749.55399785 194.50765625 -746.47016993 191.74675828 -743.2890625 189.0078125 C-741.06435528 187.05644815 -738.88846735 185.05831544 -736.71923828 183.0456543 C-731.53179343 178.23441082 -726.21911226 173.674711 -720.703125 169.23828125 C-717.94184175 166.95184295 -715.31461778 164.56391782 -712.6875 162.125 C-708.05572066 157.86270733 -703.23685427 153.95749507 -698.26464844 150.1081543 C-694.41802092 147.1275957 -690.6582742 144.0741421 -686.9375 140.9375 C-681.39115827 136.28761035 -675.71281366 131.83500902 -669.94189453 127.46923828 C-668.55861143 126.42264566 -667.1769477 125.37391124 -665.79638672 124.32373047 C-622.99745436 91.78451325 -577.62910687 62.94331015 -530 38 C-529.03191406 37.49259277 -528.06382812 36.98518555 -527.06640625 36.46240234 C-498.62987258 21.6638976 -469.16101851 9.37628934 -438.95916748 -1.30657959 C-437.11759215 -1.95837987 -435.27772917 -2.61501241 -433.43798828 -3.27197266 C-354.1625218 -31.39674347 -269.92282009 -41.5016075 0 0 Z " fill="#CE8AA3" transform="translate(3325,3178)"/>
</svg>
