<?xml version="1.0" encoding="UTF-8"?>
<svg version="1.1" xmlns="http://www.w3.org/2000/svg" width="500" height="500">
<path d="M0 0 C0.84280854 -0.00297112 1.68561708 -0.00594224 2.55396527 -0.0090034 C5.35924456 -0.01762832 8.16448087 -0.01919339 10.96977234 -0.02069092 C12.98936045 -0.02532368 15.00894769 -0.03034895 17.02853394 -0.03573608 C22.50436759 -0.04882235 27.98018901 -0.05529826 33.45603585 -0.05974674 C36.88481766 -0.06268499 40.31359618 -0.06679131 43.74237633 -0.07125092 C54.49212099 -0.08491905 65.24185807 -0.09458773 75.99161083 -0.09845281 C88.35874961 -0.10292492 100.7257774 -0.12043633 113.09288245 -0.1494534 C122.67797705 -0.17115404 132.26304062 -0.18116162 141.84815949 -0.18249393 C147.56022715 -0.18353643 153.27219038 -0.18932462 158.98423195 -0.20731354 C164.36792074 -0.2239386 169.75142824 -0.22588057 175.13513374 -0.21717453 C177.09609721 -0.21641168 179.05707101 -0.22064576 181.01800919 -0.23063278 C197.11726404 -0.30772473 212.93540253 1.10654161 228.45683289 5.64044189 C229.30648621 5.88761963 230.15613953 6.13479736 231.03153992 6.38946533 C272.1403783 19.03719274 306.85848044 48.29457916 327.18778992 86.05401611 C340.04790525 110.86271717 345.44589692 136.64833949 345.38285828 164.41021729 C345.38257587 166.15536497 345.38273519 167.90051278 345.38330078 169.6456604 C345.38358666 174.36192969 345.37772376 179.07817334 345.37072682 183.79443669 C345.36445844 188.73117647 345.36388673 193.66791689 345.36270142 198.60466003 C345.35959836 207.94355653 345.35139882 217.28244126 345.34135193 226.62133259 C345.33015891 237.25737119 345.32467231 247.89341037 345.31965649 258.5294534 C345.30921533 280.39978945 345.29163579 302.27011493 345.26933289 324.14044189 C300.49525102 324.20919659 255.72117477 324.26201559 210.94705046 324.29363788 C205.65400585 324.29738974 200.36096133 324.30127273 195.06791687 324.30523682 C194.01422314 324.30602375 192.96052941 324.30681068 191.87490556 324.30762146 C174.84196135 324.32065449 157.8090477 324.34429668 140.77612158 324.37190028 C123.28230977 324.40001311 105.78851389 324.41663055 88.29468042 324.42270738 C77.51106917 324.42681165 66.72754432 324.43974701 55.94395969 324.4641913 C48.53654798 324.48012113 41.12918054 324.48482595 33.72175296 324.48094603 C29.45615373 324.47903569 25.19070485 324.48184151 20.92513275 324.49805832 C0.65324438 324.5713156 -18.89077861 324.27677763 -38.48066711 318.32794189 C-39.79103943 317.938927 -39.79103943 317.938927 -41.12788391 317.54205322 C-65.15107031 310.2498118 -86.23201381 298.01565189 -104.25849915 280.56134033 C-105.74451062 279.12708051 -107.25026795 277.71586413 -108.75801086 276.30450439 C-128.35691125 257.67232355 -142.14093516 232.97858381 -149.54316711 207.07794189 C-149.72597229 206.44380371 -149.90877747 205.80966553 -150.09712219 205.15631104 C-153.86229704 190.9781561 -155.31480752 176.70682051 -155.23066711 162.07794189 C-155.2295694 161.28216736 -155.22847168 160.48639282 -155.2273407 159.66650391 C-155.1711999 145.37893792 -153.52307149 131.9544532 -149.73066711 118.14044189 C-149.46624817 117.10548584 -149.46624817 117.10548584 -149.19648743 116.04962158 C-142.61453808 90.68087069 -127.87904136 67.70903899 -109.73066711 49.14044189 C-108.87086243 48.21876221 -108.01105774 47.29708252 -107.12519836 46.34747314 C-80.38296405 18.34120412 -38.73568076 -0.04341711 0 0 Z " fill="#2F8EF3" transform="translate(154.7306671142578,49.85955810546875)"/>
<path d="M0 0 C1.37671875 0.00676758 1.37671875 0.00676758 2.78125 0.01367188 C5.02090391 0.02533674 7.26041545 0.04170386 9.5 0.0625 C9.5 0.3925 9.5 0.7225 9.5 1.0625 C8.88294189 1.14701416 8.26588379 1.23152832 7.63012695 1.31860352 C-19.68790255 5.17357358 -46.09951259 13.43037845 -68.5 30.0625 C-69.49386719 30.76246094 -70.48773438 31.46242188 -71.51171875 32.18359375 C-105.66810763 57.09717137 -127.51325383 94.93872337 -134.921875 136.24609375 C-141.31460676 178.44676219 -131.10818214 222.92224506 -105.7265625 257.39526367 C-78.76585064 292.66850393 -40.9328925 315.87938346 3.22949219 322.11401367 C5.98248303 322.46961387 8.7383823 322.78215396 11.5 323.0625 C11.5 323.3925 11.5 323.7225 11.5 324.0625 C-30.62144738 325.22971362 -71.9666105 312.5741406 -103.1003418 283.30029297 C-104.07911026 282.36439147 -105.05494151 281.42540871 -106.02783203 280.48339844 C-107.5138435 279.04913861 -109.01960083 277.63792224 -110.52734375 276.2265625 C-130.12624414 257.59438165 -143.91026805 232.90064191 -151.3125 207 C-151.49530518 206.36586182 -151.67811035 205.73172363 -151.86645508 205.07836914 C-155.63162993 190.9002142 -157.08414041 176.62887861 -157 162 C-156.99890228 161.20422546 -156.99780457 160.40845093 -156.99667358 159.58856201 C-156.94053279 145.30099603 -155.29240438 131.87651131 -151.5 118.0625 C-151.23558105 117.02754395 -151.23558105 117.02754395 -150.96582031 115.97167969 C-144.38387096 90.6029288 -129.64837425 67.6310971 -111.5 49.0625 C-110.64019531 48.14082031 -109.78039062 47.21914062 -108.89453125 46.26953125 C-81.59397174 17.67854647 -39.46965686 -0.37289647 0 0 Z " fill="#223040" transform="translate(156.5,49.9375)"/>
<path d="M0 0 C7.70196729 5.14438802 12.42467172 13.90514758 14.74609375 22.75 C15.1815297 26.50920495 15.22297741 30.21854883 15.18359375 34 C15.17529541 35.01980957 15.16699707 36.03961914 15.15844727 37.09033203 C14.89746533 48.72399661 12.37744627 58.47896959 3.74609375 66.75 C-5.47295431 73.54375174 -13.88302823 75.63005567 -25.25390625 74.75 C-28.20815373 74.15414331 -30.61143132 73.18541848 -33.25390625 71.75 C-34.00414062 71.3478125 -34.754375 70.945625 -35.52734375 70.53125 C-44.36837862 65.2442524 -48.76061384 57.57967081 -51.25390625 47.75 C-54.15434556 35.84400089 -53.20692568 21.14436192 -47.00390625 10.4375 C-46.12180207 9.18329878 -45.20445313 7.95315797 -44.25390625 6.75 C-43.77308594 6.13382813 -43.29226562 5.51765625 -42.796875 4.8828125 C-31.37079222 -8.07230813 -14.21030837 -7.88093359 0 0 Z " fill="#F4F8FE" transform="translate(268.25390625,154.25)"/>
<path d="M0 0 C-1.45194748 4.17243856 -3.51241204 7.32365163 -6.125 10.875 C-7.01326221 12.09523211 -7.89985087 13.31668345 -8.78515625 14.5390625 C-9.28418457 15.22774414 -9.78321289 15.91642578 -10.29736328 16.62597656 C-13.76850769 21.46586877 -17.16126257 26.36086339 -20.5625 31.25 C-21.27744629 32.27464355 -21.99239258 33.29928711 -22.72900391 34.35498047 C-23.39722168 35.31549316 -24.06543945 36.27600586 -24.75390625 37.265625 C-25.35533447 38.12961914 -25.9567627 38.99361328 -26.57641602 39.88378906 C-28.01791382 41.92901961 -28.01791382 41.92901961 -29 44 C-24.38 44 -19.76 44 -15 44 C-15 39.71 -15 35.42 -15 31 C-8.07 31 -1.14 31 6 31 C6 35.29 6 39.58 6 44 C9.63 44 13.26 44 17 44 C17 49.94 17 55.88 17 62 C13.37 62 9.74 62 6 62 C6 66.62 6 71.24 6 76 C-0.93 76 -7.86 76 -15 76 C-15 71.38 -15 66.76 -15 62 C-28.53 62 -42.06 62 -56 62 C-56 44.80695486 -56 44.80695486 -50.3125 38.1875 C-49.11617889 36.67006546 -47.92089701 35.15181113 -46.7265625 33.6328125 C-45.80085449 32.49247559 -45.80085449 32.49247559 -44.85644531 31.32910156 C-42.40789233 28.25714003 -40.12220356 25.08347297 -37.84472656 21.88354492 C-36.74615341 20.34492752 -35.63358763 18.81619883 -34.50683594 17.2980957 C-32.13594825 14.0971122 -29.91468375 11.01911954 -28.1796875 7.42578125 C-22.35073929 -3.57037467 -10.91405395 -1.00664971 0 0 Z " fill="#F2F7FE" transform="translate(189,151)"/>
<path d="M0 0 C-4.66664693 7.62125851 -9.73369113 14.84635856 -14.99951172 22.06152344 C-20.21582958 29.23490357 -25.14924726 36.57604885 -30 44 C-25.05 44 -20.1 44 -15 44 C-15 40.04 -15 36.08 -15 32 C-8.4 32 -1.8 32 5 32 C5 35.96 5 39.92 5 44 C8.63 44 12.26 44 16 44 C16 49.94 16 55.88 16 62 C12.37 62 8.74 62 5 62 C5 66.62 5 71.24 5 76 C-1.93 76 -8.86 76 -16 76 C-16 71.38 -16 66.76 -16 62 C-29.53 62 -43.06 62 -57 62 C-57 44.79848475 -57 44.79848475 -50.625 37.4375 C-49.3297762 35.81847025 -48.03551109 34.19867309 -46.7421875 32.578125 C-46.10249023 31.80146484 -45.46279297 31.02480469 -44.80371094 30.22460938 C-42.7441814 27.68448578 -40.82778777 25.07316155 -38.94995117 22.3972168 C-38.1543518 21.26362933 -37.34464343 20.13980571 -36.52075195 19.02661133 C-34.38353574 16.12146082 -32.58043251 13.25931012 -30.97265625 10.02734375 C-23.97463727 -3.09677274 -13.6593849 -1.55414357 0 0 Z " fill="#F3F8FE" transform="translate(352,151)"/>
<path d="M0 0 C4.14791609 3.45659674 9.30269589 8.74132528 9.828125 14.359375 C9.92587445 19.73559462 9.78248194 23.61459513 6.625 28.1875 C0.74322015 33.90589708 -4.61819001 35.38950559 -12.625 35.625 C-23.86487167 35.33708211 -31.25204586 32.34622363 -39.3359375 24.48046875 C-43.66819362 19.60875545 -44.98390846 14.83164923 -44.71875 8.32421875 C-43.91629059 3.33620398 -40.84997732 0.37406807 -37 -2.5625 C-24.48495828 -10.7565589 -12.18534354 -6.54398079 0 0 Z " fill="#6AAEF6" transform="translate(405.375,90.8125)"/>
<path d="M0 0 C4.36973201 2.72077654 6.34692809 4.9459731 7.62719727 9.92407227 C8.34389333 13.91494759 8.32766871 17.8935206 8.3125 21.9375 C8.32861328 22.79279297 8.34472656 23.64808594 8.36132812 24.52929688 C8.36653188 31.35141364 7.47693027 37.24785525 2.75 42.5 C-0.82961106 44.45251513 -2.97451071 44.5750699 -7 44 C-11.30051837 41.65426271 -12.7590271 38.89473921 -14.38037109 34.34960938 C-15.50352005 30.090671 -15.47206664 25.88053662 -15.4375 21.5 C-15.45748047 20.60152344 -15.47746094 19.70304687 -15.49804688 18.77734375 C-15.49293466 11.75316712 -13.96786288 6.27488318 -9.1875 1 C-5.86884789 -0.51709811 -3.60816656 -0.49767815 0 0 Z " fill="#318FF4" transform="translate(253,167)"/>
<path d="M0 0 C5.87250271 3.15375146 10.14942161 6.3830513 12.375 12.8125 C13.14441086 17.64269043 13.13031461 20.71386057 10.3125 24.8125 C6.20737219 27.60748064 3.09897979 28.3196239 -1.828125 27.40234375 C-8.74567113 25.43766653 -13.55421458 21.88527836 -17.5625 15.9375 C-18.98402443 11.75654579 -19.18625099 9.23235156 -18.625 4.8125 C-13.29471739 -1.78021796 -7.84127652 -2.56869403 0 0 Z " fill="#5FA8F6" transform="translate(438.625,122.1875)"/>
<path d="M0 0 C14.19642857 -0.53571429 14.19642857 -0.53571429 17.75 1.8125 C20.69530622 4.67599216 21.92892705 6.2324121 22.3125 10.375 C21.97673312 14.26989583 21.4315959 15.98146716 19 19 C14.86379015 22.12463679 11.80324237 22.33093203 6.6875 22.1875 C3.3771875 22.0946875 3.3771875 22.0946875 0 22 C0 14.74 0 7.48 0 0 Z " fill="#EBF3FE" transform="translate(385,244)"/>
<path d="M0 0 C3.93173952 3.05801962 5.09490346 4.54800179 5.75 9.625 C5.58014463 14.40776952 3.65087383 16.50730635 0.25 19.75 C-3.81872744 21.10624248 -7.50021964 21.41606438 -11.75 20.75 C-14.8235547 19.04459077 -17.15579136 16.93841729 -18.75 13.75 C-19.32538625 6.73028769 -19.32538625 6.73028769 -17.0625 2.875 C-12.13683291 -1.65128868 -6.22153472 -2.82797033 0 0 Z " fill="#EEF5FE" transform="translate(322.75,245.25)"/>
<path d="M0 0 C3.22625491 1.50558563 5.71530969 3.27373089 8 6 C8.85423519 9.73727895 8.8237616 13.4755676 6.98046875 16.88671875 C4.84367379 19.55287077 3.25871705 20.91376098 0 22 C-6.11823453 22.50149463 -9.09458036 22.06790897 -14 18 C-15.85726616 14.28546768 -15.58501089 10.04420575 -15 6 C-10.68364092 0.43416856 -6.89753181 -0.7560756 0 0 Z " fill="#EFF6FE" transform="translate(240,244)"/>
<path d="M0 0 C6 0 6 0 8.3359375 2.1875 C9.00882812 3.115625 9.68171875 4.04375 10.375 5 C11.06335938 5.928125 11.75171875 6.85625 12.4609375 7.8125 C12.96882813 8.534375 13.47671875 9.25625 14 10 C14.33 6.7 14.66 3.4 15 0 C16.98 0 18.96 0 21 0 C21 7.26 21 14.52 21 22 C15 22 15 22 12.8828125 20.03125 C12.01269531 18.77828125 12.01269531 18.77828125 11.125 17.5 C10.23167969 16.24703125 10.23167969 16.24703125 9.3203125 14.96875 C8.88460938 14.3190625 8.44890625 13.669375 8 13 C7.67 15.97 7.34 18.94 7 22 C4.69 22 2.38 22 0 22 C0 14.74 0 7.48 0 0 Z " fill="#E8F2FE" transform="translate(358,244)"/>
<path d="M0 0 C6 0 6 0 8.3359375 2.1875 C9.00882813 3.115625 9.68171875 4.04375 10.375 5 C11.06335938 5.928125 11.75171875 6.85625 12.4609375 7.8125 C12.96882812 8.534375 13.47671875 9.25625 14 10 C14.33 6.7 14.66 3.4 15 0 C16.98 0 18.96 0 21 0 C21 7.26 21 14.52 21 22 C15 22 15 22 12.6640625 19.8125 C11.99117187 18.884375 11.31828125 17.95625 10.625 17 C9.93664062 16.071875 9.24828125 15.14375 8.5390625 14.1875 C8.03117188 13.465625 7.52328125 12.74375 7 12 C6.67 15.3 6.34 18.6 6 22 C4.02 22 2.04 22 0 22 C0 14.74 0 7.48 0 0 Z " fill="#EBF3FE" transform="translate(199,244)"/>
<path d="M0 0 C14.19642857 -0.66964286 14.19642857 -0.66964286 17.875 2.125 C20 5 20 5 20.6875 8 C19.74510973 12.11224846 18.43645091 13.56584727 15 16 C12.19242993 16.40997788 9.86006586 16.24237846 7 16 C7 17.98 7 19.96 7 22 C4.69 22 2.38 22 0 22 C0 14.74 0 7.48 0 0 Z " fill="#E2EFFD" transform="translate(93,244)"/>
<path d="M0 0 C1.98 0 3.96 0 6 0 C15 17.73786408 15 17.73786408 15 22 C13.02 22 11.04 22 9 22 C8.67 20.68 8.34 19.36 8 18 C4.7 18 1.4 18 -2 18 C-2.33 19.32 -2.66 20.64 -3 22 C-4.98 22 -6.96 22 -9 22 C-7.00878667 14.10501383 -3.81085857 7.17773362 0 0 Z " fill="#E9F2FE" transform="translate(123,244)"/>
<path d="M0 0 C2.31 0 4.62 0 7 0 C7.33 5.28 7.66 10.56 8 16 C9.65 16 11.3 16 13 16 C14.99616554 14.00383446 14.40983427 10.18298037 14.5625 7.4375 C14.60568359 6.72658203 14.64886719 6.01566406 14.69335938 5.28320312 C14.79971777 3.52238088 14.90038846 1.7612168 15 0 C16.98 0 18.96 0 21 0 C21.08139142 2.39652528 21.14067009 4.79025436 21.1875 7.1875 C21.21263672 7.86103516 21.23777344 8.53457031 21.26367188 9.22851562 C21.32923345 13.70855667 20.77604854 16.46037634 18 20 C13.99745384 22.66836411 10.70686701 22.8340238 6 22 C3.24430553 19.81840855 1.56411253 18.12822506 0 15 C-0.0716735 12.44842345 -0.09308442 9.92527029 -0.0625 7.375 C-0.05798828 6.66859375 -0.05347656 5.9621875 -0.04882812 5.234375 C-0.03703875 3.48954725 -0.01910324 1.744763 0 0 Z " fill="#E7F1FE" transform="translate(332,244)"/>
<path d="M0 0 C5.61 0 11.22 0 17 0 C17 1.65 17 3.3 17 5 C13.37 5 9.74 5 6 5 C6 5.99 6 6.98 6 8 C8.97 8 11.94 8 15 8 C15 9.65 15 11.3 15 13 C12.03 13 9.06 13 6 13 C6 14.32 6 15.64 6 17 C9.63 17 13.26 17 17 17 C17 18.65 17 20.3 17 22 C11.39 22 5.78 22 0 22 C0 14.74 0 7.48 0 0 Z " fill="#EAF3FE" transform="translate(167,244)"/>
<path d="M0 0 C2.9375 1.5 2.9375 1.5 5 3 C4.34 4.32 3.68 5.64 3 7 C2.06027344 6.87431641 2.06027344 6.87431641 1.1015625 6.74609375 C-0.12433594 6.59333984 -0.12433594 6.59333984 -1.375 6.4375 C-2.59316406 6.28087891 -2.59316406 6.28087891 -3.8359375 6.12109375 C-6.04899186 5.81762672 -6.04899186 5.81762672 -8 7 C-8 9.97 -8 12.94 -8 16 C-5.36 16.33 -2.72 16.66 0 17 C0 15.02 0 13.04 0 11 C1.65 11 3.3 11 5 11 C5.08096803 12.45742463 5.13917774 13.91612807 5.1875 15.375 C5.23970703 16.59316406 5.23970703 16.59316406 5.29296875 17.8359375 C5.19628906 18.55007813 5.09960938 19.26421875 5 20 C0.55139766 22.9657349 -3.78143535 22.64087636 -9 22 C-12.00197464 20.19881522 -13.45166366 19.09667268 -15 16 C-15.64060222 10.82942493 -15.89905059 7.19063457 -12.6875 2.9375 C-8.4369869 -0.12682339 -5.15611262 -0.35559397 0 0 Z " fill="#EEF5FE" transform="translate(156,244)"/>
<path d="M0 0 C5.61 0 11.22 0 17 0 C17 1.65 17 3.3 17 5 C13.37 5 9.74 5 6 5 C6 6.65 6 8.3 6 10 C9.3 10 12.6 10 16 10 C16 11.65 16 13.3 16 15 C12.7 15 9.4 15 6 15 C6 17.31 6 19.62 6 22 C4.02 22 2.04 22 0 22 C0 14.74 0 7.48 0 0 Z " fill="#E8F2FE" transform="translate(284,244)"/>
<path d="M0 0 C6.27 0 12.54 0 19 0 C19 1.65 19 3.3 19 5 C17.02 5 15.04 5 13 5 C13 10.61 13 16.22 13 22 C10.69 22 8.38 22 6 22 C6 16.39 6 10.78 6 5 C4.02 5 2.04 5 0 5 C0 3.35 0 1.7 0 0 Z " fill="#E5F0FD" transform="translate(251,244)"/>
<path d="M0 0 C3.0625 0.375 3.0625 0.375 5 2 C6.42739363 5.19064458 6.00093266 7.05439213 5.0625 10.375 C3.0625 12.375 3.0625 12.375 0.125 12.75 C-2.9375 12.375 -2.9375 12.375 -4.875 10.75 C-6.30239363 7.55935542 -5.87593266 5.69560787 -4.9375 2.375 C-2.9375 0.375 -2.9375 0.375 0 0 Z " fill="#3893F4" transform="translate(315.9375,248.625)"/>
<path d="M0 0 C1.8125 1.125 1.8125 1.125 3 3 C3.39310741 6.14485925 3.47555213 8.13281671 1.9375 10.9375 C-1.18142449 12.64787795 -3.65557801 11.80513863 -7 11 C-8.39935013 8.20129973 -8.25265405 6.09501208 -8 3 C-5.90534242 -0.30735407 -3.75951639 -0.56392746 0 0 Z " fill="#3390F4" transform="translate(239,249)"/>
<path d="M0 0 C6 0 6 0 8.4375 1.625 C10 4 10 4 9.9375 7.125 C9 10 9 10 6 12 C4.02 12 2.04 12 0 12 C0 8.04 0 4.08 0 0 Z " fill="#3691F4" transform="translate(391,249)"/>
<path d="M0 0 C1.66611905 -0.042721 3.33382885 -0.04063832 5 0 C6 1 6 1 6.0625 3.5625 C6.041875 4.366875 6.02125 5.17125 6 6 C4.02 6 2.04 6 0 6 C0 4.02 0 2.04 0 0 Z " fill="#3490F4" transform="translate(100,249)"/>
<path d="M0 0 C0.66 0 1.32 0 2 0 C2.66 1.98 3.32 3.96 4 6 C2.35 6 0.7 6 -1 6 C-0.67 4.02 -0.34 2.04 0 0 Z " fill="#459AF5" transform="translate(125,251)"/>
</svg>
